<svg width="150" height="150" viewBox="0 0 150 150" fill="none" xmlns="http://www.w3.org/2000/svg">
<path d="M99.0595 138.056H51.6141C50.6153 138.032 49.631 137.812 48.7173 137.408C47.8037 137.004 46.9786 136.423 46.2892 135.7C45.5999 134.977 45.0598 134.125 44.6997 133.193C44.3397 132.262 44.1668 131.268 44.191 130.269V78.9563H49.3819V130.269C49.3572 130.586 49.3953 130.905 49.4942 131.208C49.5932 131.51 49.7509 131.79 49.9583 132.031C50.1657 132.272 50.4188 132.47 50.703 132.613C50.9871 132.756 51.2968 132.842 51.6141 132.865H99.0595C99.3769 132.842 99.6865 132.756 99.9706 132.613C100.255 132.47 100.508 132.272 100.715 132.031C100.923 131.79 101.08 131.51 101.179 131.208C101.278 130.905 101.316 130.586 101.292 130.269V78.9563H106.483V130.269C106.507 131.268 106.334 132.262 105.974 133.193C105.614 134.125 105.074 134.977 104.384 135.7C103.695 136.423 102.87 137.004 101.956 137.408C101.043 137.812 100.058 138.032 99.0595 138.056V138.056Z" fill="white"/>
<path d="M83.1233 83.5503H88.3142V122.483H83.1233V83.5503Z" fill="white"/>
<path d="M62.3594 83.5503H67.5503V122.483H62.3594V83.5503Z" fill="white"/>
<path d="M88.3142 65.0186H83.3828V60.191H67.2908V65.0186H62.3594V60.191C62.3577 58.8581 62.8688 57.5756 63.7869 56.6092C64.7049 55.6428 65.9595 55.0666 67.2908 55H83.3828C84.7141 55.0666 85.9687 55.6428 86.8867 56.6092C87.8048 57.5756 88.3159 58.8581 88.3142 60.191V65.0186Z" fill="white"/>
<path d="M108.507 73.1684H41.5955C40.9071 73.1684 40.2469 72.895 39.7602 72.4082C39.2735 71.9215 39 71.2613 39 70.5729C39 69.8846 39.2735 69.2244 39.7602 68.7376C40.2469 68.2509 40.9071 67.9774 41.5955 67.9774H108.507C109.195 67.9774 109.856 68.2509 110.342 68.7376C110.829 69.2244 111.103 69.8846 111.103 70.5729C111.103 71.2613 110.829 71.9215 110.342 72.4082C109.856 72.895 109.195 73.1684 108.507 73.1684Z" fill="white"/>
</svg>
