<svg width="150" height="150" viewBox="0 0 150 150" fill="none" xmlns="http://www.w3.org/2000/svg">
<path d="M110.295 136.102H40.5443C39.076 136.068 37.6289 135.744 36.2857 135.15C34.9425 134.556 33.7295 133.703 32.7161 132.64C31.7027 131.577 30.9086 130.324 30.3793 128.954C29.8501 127.584 29.5959 126.123 29.6314 124.655V49.2189H37.2628V124.655C37.2264 125.121 37.2825 125.59 37.4279 126.035C37.5733 126.479 37.8052 126.891 38.1101 127.245C38.4151 127.6 38.7871 127.891 39.2049 128.101C39.6226 128.311 40.0778 128.437 40.5443 128.471H110.295C110.762 128.437 111.217 128.311 111.635 128.101C112.052 127.891 112.424 127.6 112.729 127.245C113.034 126.891 113.266 126.479 113.412 126.035C113.557 125.59 113.613 125.121 113.577 124.655V49.2189H121.208V124.655C121.244 126.123 120.989 127.584 120.46 128.954C119.931 130.324 119.137 131.577 118.123 132.64C117.11 133.703 115.897 134.556 114.554 135.15C113.211 135.744 111.763 136.068 110.295 136.102V136.102Z" fill="white"/>
<path d="M86.8668 55.9726H94.4982V113.208H86.8668V55.9726Z" fill="white"/>
<path d="M56.3413 55.9726H63.9726V113.208H56.3413V55.9726Z" fill="white"/>
<path d="M94.4982 28.7286H87.2484V21.6314H63.5911V28.7286H56.3413V21.6314C56.3388 19.6718 57.0902 17.7864 58.4399 16.3657C59.7895 14.945 61.634 14.098 63.5911 14H87.2484C89.2055 14.098 91.0499 14.945 92.3996 16.3657C93.7492 17.7864 94.5007 19.6718 94.4982 21.6314V28.7286Z" fill="white"/>
<path d="M124.184 40.7099H25.8157C24.8037 40.7099 23.8332 40.3079 23.1176 39.5923C22.402 38.8767 22 37.9062 22 36.8942C22 35.8822 22.402 34.9116 23.1176 34.1961C23.8332 33.4805 24.8037 33.0785 25.8157 33.0785H124.184C125.196 33.0785 126.167 33.4805 126.882 34.1961C127.598 34.9116 128 35.8822 128 36.8942C128 37.9062 127.598 38.8767 126.882 39.5923C126.167 40.3079 125.196 40.7099 124.184 40.7099Z" fill="white"/>
</svg>
